<svg width="35" height="36" viewBox="0 0 35 36" fill="none" xmlns="http://www.w3.org/2000/svg">
<rect y="0.617676" width="35" height="35" rx="10" fill="#F2994A" fill-opacity="0.1"/>
<path d="M17.5 12.2427C15.6367 12.2427 14.125 13.7896 14.125 15.6177C14.125 17.481 15.6367 18.9927 17.5 18.9927C19.3281 18.9927 20.875 17.481 20.875 15.6177C20.875 13.7896 19.3281 12.2427 17.5 12.2427ZM17.5 17.8677C16.2344 17.8677 15.25 16.8833 15.25 15.6177C15.25 14.3872 16.2344 13.3677 17.5 13.3677C18.7305 13.3677 19.75 14.3872 19.75 15.6177C19.75 16.8833 18.7305 17.8677 17.5 17.8677ZM17.5 8.86768C13.7383 8.86768 10.75 11.8911 10.75 15.6177C10.75 18.3599 11.6641 19.1333 16.7969 26.5161C17.1133 27.0083 17.8516 27.0083 18.168 26.5161C23.3008 19.1333 24.25 18.3599 24.25 15.6177C24.25 11.8911 21.2266 8.86768 17.5 8.86768ZM17.5 25.5317C12.5781 18.4653 11.875 17.9028 11.875 15.6177C11.875 14.1411 12.4375 12.7349 13.4922 11.645C14.582 10.5903 15.9883 9.99268 17.5 9.99268C18.9766 9.99268 20.3828 10.5903 21.4727 11.645C22.5273 12.7349 23.125 14.1411 23.125 15.6177C23.125 17.9028 22.3867 18.4653 17.5 25.5317Z" fill="#F17228"/>
</svg>
