<svg width="23" height="19" viewBox="0 0 23 19" fill="none" xmlns="http://www.w3.org/2000/svg">
<path d="M20.0781 0.75C19.1406 0.789062 14.4531 1.10156 11.5234 2.66406C11.3672 2.74219 11.0938 2.74219 10.9375 2.66406C8.00781 1.10156 3.32031 0.789062 2.38281 0.75C1.05469 0.75 0 1.80469 0 3.09375V14.6562C0 15.9062 0.976562 16.8828 2.22656 16.9609C3.59375 17.0391 6.99219 17.2734 9.33594 18.1328C9.57031 18.2109 9.76562 18.25 9.96094 18.25H12.4609C12.6953 18.25 12.8906 18.2109 13.125 18.1328C15.4688 17.2734 18.8672 17.0391 20.2344 16.9609C21.4844 16.8828 22.4609 15.9062 22.4609 14.6562V3.09375C22.5 1.80469 21.4062 0.75 20.0781 0.75ZM10.625 16.4141C10.625 16.7656 10.3125 17.0391 10 17.0391C9.92188 17.0391 9.88281 17 9.80469 17C7.34375 16.0625 3.98438 15.7891 2.30469 15.7109C1.71875 15.6719 1.25 15.2422 1.25 14.6562V3.09375C1.25 2.50781 1.75781 2.03906 2.38281 2.03906C3.125 2.03906 7.14844 2.3125 9.88281 3.52344C10.3125 3.71875 10.5859 4.14844 10.5859 4.61719L10.625 8.52344V16.4141ZM21.25 14.6562C21.25 15.2422 20.7422 15.6719 20.1562 15.7109C18.4766 15.7891 15.1172 16.0625 12.6562 17C12.5781 17 12.5391 17.0391 12.4609 17.0391C12.1484 17.0391 11.8359 16.7656 11.8359 16.4141V8.52344L11.875 4.61719C11.875 4.14844 12.1484 3.71875 12.5781 3.52344C15.3125 2.3125 19.3359 2.03906 20.0781 2.03906C20.7031 2.03906 21.2109 2.50781 21.2109 3.09375V14.6562H21.25Z" fill="#FF7800"/>
</svg>
