<svg width="21" height="21" viewBox="0 0 21 21" fill="none" xmlns="http://www.w3.org/2000/svg">
<path d="M20.3359 11.75H20.5312C20.8047 11.2031 20.9609 10.5781 21 9.875C21 8.58594 20.4141 7.45312 19.5156 6.63281C18.9297 4.5625 17.0156 3 14.75 3C14.5938 3 14.4375 3.03906 14.3203 3.07812C13.6172 1.55469 12.1328 0.5 10.375 0.5C8.61719 0.5 7.09375 1.55469 6.39062 3.07812C6.27344 3.03906 6.11719 3 6 3C3.22656 3 1 5.26562 1 8C1 9.52344 1.66406 10.8516 2.71875 11.75H1.625C1.27344 11.75 0.960938 12.0625 1 12.4141C1.23438 15.4219 3.26562 17.8828 6 18.8203V19.25C6 19.9531 6.54688 20.5 7.25 20.5H14.75C15.4531 20.5 16 19.9531 16 19.25V18.8203C18.6953 17.8438 20.7266 15.3828 20.9609 12.4141C21 12.0625 20.7266 11.75 20.3359 11.75ZM19.75 9.875C19.7109 10.6172 19.4766 11.2422 19.0859 11.75H14.125C13.7344 11.2422 13.5 10.6172 13.5 9.875C13.5 8.15625 14.8672 6.75 16.625 6.75C18.3438 6.75 19.75 8.15625 19.75 9.875ZM2.25 8C2.25 6.63281 3.14844 3.9375 7.25 4.25C8.30469 1.78906 9.78906 1.75 10.375 1.75C10.9219 1.75 12.4062 1.75 13.5 4.25C14.8672 4.17188 16.4688 4.21094 17.6406 5.65625C17.2891 5.57812 16.9375 5.53906 16.625 5.5C14.2031 5.53906 12.25 7.49219 12.25 9.875C12.25 10.5781 12.4062 11.2031 12.6797 11.75H11V4.5625C11 4.40625 10.8438 4.25 10.6875 4.25H10.0625C9.86719 4.25 9.75 4.40625 9.75 4.5625V10.8906L5.41406 6.55469C5.33594 6.47656 5.25781 6.47656 5.17969 6.47656C5.10156 6.47656 5.02344 6.47656 4.94531 6.55469L4.51562 6.98438C4.4375 7.0625 4.39844 7.14062 4.39844 7.21875C4.39844 7.29688 4.4375 7.375 4.51562 7.41406L8.85156 11.75H6C3.92969 11.75 2.25 10.0703 2.25 8ZM15.5703 17.6484L14.75 17.9219V19.25H7.25V17.9219L6.39062 17.6484C4.32031 16.9062 2.75781 15.1484 2.32812 13H19.6328C19.2031 15.1484 17.6797 16.9062 15.5703 17.6484Z" fill="#FF7800"/>
</svg>
